<svg version="1.1" xmlns="http://www.w3.org/2000/svg" xmlns:xlink="http://www.w3.org/1999/xlink" x="0px" y="0px" viewBox="0 0 1000 1000" enable-background="new 0 0 1000 1000" xml:space="preserve">
<g><path d="M500,10C229.4,10,10,229.4,10,500c0,270.6,219.4,490,490,490c270.6,0,490-219.4,490-490C990,229.4,770.6,10,500,10z M500,898.1c-219.9,0-398.1-178.3-398.1-398.1c0-219.9,178.3-398.1,398.1-398.1S898.1,280.1,898.1,500C898.1,719.9,719.9,898.1,500,898.1z M714.4,331.6c0-25.4-20.6-45.9-45.9-45.9c-12.7,0-24.2,5.1-32.5,13.5L500,435l-136-136c-8.3-8.3-19.8-13.5-32.5-13.5c-25.4,0-45.9,20.6-45.9,45.9c0,12.7,5.1,24.2,13.5,32.5L435,500l-136,136c-8.3,8.3-13.4,19.8-13.4,32.5c0,25.4,20.6,45.9,45.9,45.9c12.7,0,24.2-5.1,32.5-13.5L500,565l136,136c8.3,8.3,19.8,13.4,32.5,13.4c25.4,0,45.9-20.6,45.9-45.9c0-12.7-5.1-24.2-13.5-32.5L565,500l136-135.9C709.2,355.7,714.4,344.3,714.4,331.6z"/></g>
</svg>